/* XPM */
static char *result[] = {
/* columns rows colors chars-per-pixel */
"32 32 12 1 ",
"  c black",
". c #0B0343",
"X c #0E0454",
"o c #0B0061",
"O c #100560",
"+ c #1015BB",
"@ c #1940E8",
"# c #2463E8",
"$ c #4999EB",
"% c #A7FDFF",
"& c #F0EAD0",
"* c None",
/* pixels */
"********************************",
"********************************",
"********************************",
"********************************",
"********************************",
"********************************",
"*************      *************",
"***********  ##@@#+  ***********",
"********** #@+oo@@@@o **********",
"********* #+o&o$o#+#+o *********",
"******** @+&&$$oo%%+#+o ********",
"******** @$&&&o@+%%%@+o ********",
"******* @+&&&#$o@%#%$@oo *******",
"******* #$$&#oo@#%#+%$oo *******",
"******* @o&$o@++%%@+#$#+ *******",
"******* #@o#oo+@%#+o+$o+ *******",
"******* @#o++@+%%@+o+@o@ *******",
"******* ++oo+@%%@+oo+oo@ *******",
"******** +@$$%$$+o@ooo+ ********",
"******** +++$$$++@ooo+@ ********",
"********* o#@$@ooo@o++ *********",
"********** oooo+oo+@@ **********",
"***********  +oo+@@  OO*********",
"*************      ..XXOO*******",
"************OX..******..XO******",
"*************OOXX....XXOO*******",
"***************OOOOOOOO*********",
"********************************",
"********************************",
"********************************",
"********************************",
"********************************"
};
