/* XPM */
static char *result[] = {
/* columns rows colors chars-per-pixel */
"32 32 229 2 ",
"   c black",
".  c #070000",
"X  c #0E0100",
"o  c gray4",
"O  c #130101",
"+  c #1A0201",
"@  c #100A0A",
"#  c #140B0A",
"$  c #1C0B0B",
"%  c #1F0C0B",
"&  c #151515",
"*  c #191515",
"=  c #1C1515",
"-  c gray10",
";  c #1D1A1A",
":  c #200301",
">  c #280402",
",  c #220C0B",
"<  c #240C0B",
"1  c #2B0D0C",
"2  c #2D0D0C",
"3  c #241615",
"4  c #2D1616",
"5  c #2F1716",
"6  c #2D1A18",
"7  c #2F1A18",
"8  c #3D1B18",
"9  c #3F1B18",
"0  c #381F1B",
"q  c #391F1B",
"w  c #382D1B",
"e  c #3C2D1B",
"r  c #3D2D1B",
"t  c gray13",
"y  c #262121",
"u  c #2D2D2D",
"i  c #2F2D2D",
"p  c #312D2D",
"a  c #322D2D",
"s  c #342D2D",
"d  c #392D2D",
"f  c #3A2D2D",
"g  c #3B2D2D",
"h  c #393939",
"j  c #3A3939",
"k  c #3C3939",
"l  c #3D3939",
"z  c #421C19",
"x  c #4F1D19",
"c  c #49201B",
"v  c #4D2119",
"b  c #4E2119",
"n  c #4F2119",
"m  c #4D201B",
"M  c #422D1B",
"N  c #452D1B",
"B  c #4B2D1B",
"V  c #502119",
"C  c #512119",
"Z  c #572219",
"A  c #52241B",
"S  c #56251B",
"D  c #5E2219",
"F  c #5C251C",
"G  c #5E251C",
"H  c #50301B",
"J  c #62291B",
"K  c #64291B",
"L  c #6D2A1C",
"P  c #6C3519",
"I  c #703518",
"U  c #713518",
"Y  c #723518",
"T  c #74371A",
"R  c #763818",
"E  c #7E3818",
"W  c #7C381B",
"Q  c #7C3A1A",
"!  c #7D3B1A",
"~  c #7E3A1A",
"^  c #4F2A25",
"/  c #462D2C",
"(  c #502A25",
")  c #47302C",
"_  c #503F25",
"`  c #513F25",
"'  c #523F25",
"]  c #533F25",
"[  c #543F25",
"{  c #553F25",
"}  c #573E25",
"|  c #51302C",
" . c #52302C",
".. c #54302C",
"X. c #403939",
"o. c #413939",
"O. c #433938",
"+. c #443938",
"@. c #4D3838",
"#. c #553A37",
"$. c #662E24",
"%. c #6E2E24",
"&. c #6D3024",
"*. c #68362F",
"=. c #69362F",
"-. c #6E3E2A",
";. c #7F3423",
":. c #783124",
">. c #76382E",
",. c #79382D",
"<. c #7A382D",
"1. c #7C3A2D",
"2. c #7E3A2D",
"3. c #6B512F",
"4. c #69522F",
"5. c #6A522F",
"6. c #6C512F",
"7. c #6D512F",
"8. c #744534",
"9. c #7F4038",
"0. c #774E3F",
"q. c #784E3F",
"w. c #7F6338",
"e. c gray27",
"r. c #464545",
"t. c #474545",
"y. c #484545",
"u. c #4A4544",
"i. c #4D4444",
"p. c #4F4444",
"a. c #584643",
"s. c #5E4542",
"d. c #5F4542",
"f. c #5B504F",
"g. c #515151",
"h. c #525151",
"j. c #535151",
"k. c #545150",
"l. c #545151",
"z. c #575050",
"x. c #585050",
"c. c #595050",
"v. c #5D5D5D",
"b. c #5E5D5D",
"n. c #5F5D5D",
"m. c #614542",
"M. c #60514F",
"N. c #6E504C",
"B. c #7E564A",
"V. c #645C5B",
"C. c #605C5C",
"Z. c #6B6767",
"A. c #6D6666",
"S. c #6F6666",
"D. c #6A6867",
"F. c #686868",
"G. c #696868",
"H. c #736765",
"J. c #833B18",
"K. c #843919",
"L. c #863A1B",
"P. c #873D1B",
"I. c #8F3F1B",
"U. c #813D23",
"Y. c #863F22",
"T. c #883F22",
"R. c #8C3F22",
"E. c #904617",
"W. c #93411A",
"Q. c #994919",
"!. c #9A4919",
"~. c #9B4919",
"^. c #9D4918",
"/. c #9D4919",
"(. c #9D4A1A",
"). c #9F4A1A",
"_. c #AB5416",
"`. c #A85318",
"'. c #AB551E",
"]. c #AC551E",
"[. c #AD551E",
"{. c #AF551E",
"}. c #B75D15",
"|. c #B1571E",
" X c #B4581D",
".X c #8A432B",
"XX c #8B432B",
"oX c #8C432B",
"OX c #994A20",
"+X c #9A4B20",
"@X c #9C4B20",
"#X c #90452B",
"$X c #98522F",
"%X c #804733",
"&X c #844E3D",
"*X c #945030",
"=X c #975639",
"-X c #94563A",
";X c #A04C20",
":X c #A14F28",
">X c #A34F28",
",X c #A85027",
"<X c #AA5226",
"1X c #B25925",
"2X c #BC5D2A",
"3X c #A95E35",
"4X c #866237",
"5X c #BC662F",
"6X c #977541",
"7X c #997340",
"8X c #9A7240",
"9X c #987440",
"0X c #987441",
"qX c #846055",
"wX c #8A685F",
"eX c #AE6847",
"rX c #B16D4F",
"tX c #FF9300",
"yX c #FFC100",
"uX c #AD8349",
"iX c #AD8449",
"pX c #AC854A",
"aX c #AC864A",
"sX c #C49450",
"dX c #C49550",
"fX c #C49651",
"gX c #C49752",
"hX c #C49852",
"jX c #FFE080",
/* pixels */
"@ + 1 5 1 + . o o   o o   o & & o o o o   o o & * # , > < O @ o ",
"% M.qXN.wXM.u.b.F.v.g.v.g.e.v.g.v.e.v.g.e.g.e.j t.i.#.8.| g a . ",
"1 wXyXrXyXq.p.l.b.e.g.F.v.e.e.v.v.g.v.F.v.v.e.t.o.#.-XyX*X..f X ",
"5 N.eXtX3XN.V.n.r.v.h h & & t t t t & & u h h.l.p.8.yX5XjX%X/ % ",
"1 wXyX3XjXwXV.l j u & & 6 6 6 - 0 6 6 6 & & u k z.s.=XyXtX$X .: ",
"3 H.B.N.qXa.X.j u & 6 6 0 6 0 - ^ 0 0 6 6 6 & i l x.m.&X$XyX-.4 ",
"@ C.A.c.p.X.i & & 6 6 6 ^ 6 0 - *.^ 0 6 0 6 6 & * l O.@.d.0.) $ ",
"  h.n.D.l i & 6 6 0 6 6 ^ 0 0 - *.^ 0 6 ^ 6 6 6 6 * p X.d +.s * ",
"o v.G.r.i t 6 6 6 0 0 6 ^ 0 ^ - *.^ ^ 6 ^ 0 6 0 6 6 * i k p j o ",
"  g.e.h & 6 0 0 6 ^ 0 6 *.0 ^ - 9.^ ^ 0 ^ ^ 0 0 ^ 6 6 & h r.u & ",
"  F.g.& 6 0 ^ 0 6 ^ 0 0 *.0 ^ - 9.^ *.0 *.^ 0 ^ ^ 6 0 6 e.h h & ",
"  g.e.& 6 0 ^ ^ 0 *.^ 0 *.^ *.- 9.^ *.0 *.^ 0 *.^ 6 ^ 6 v.h e.& ",
"o v.F.o 0 ^ *.^ 0 *.^ 0 *.^ *.- 9.^ *.0 *.^ ^ *.*.0 ^ 6 F.u u & ",
"& v.e.o 0 ^ *.*.0 *.*.^ *.^ *.- 9.^ *.^ *.*.^ *.*.^ *.0 F.h u & ",
"& v.g.& w.^ =.*.^ *.=.^ *.^ *.; 9.*.*.( =.=.( *.*.*.=.w.F.h u o ",
"o g.h t 4.aXgXhXhXhXpXaXaX6X6Xe hX6XaXgXhXhXpXaXaX6X0X4.v.e.h o ",
"o h u * ` [ } 6.5.3.7.3.' ' { N 9X' ] 7.7.7.7.3.3.{ } ] b.e.u o ",
"  u j = M V U S z n T v 8 9 V P >.c A I Z F I b m C T H Z.j u & ",
"  h p < V E.jXOXD E yXY.x G E.tX:X%.U.yX~.;XyX~ W J.yXR f.y.j & ",
"o r.l 2 Y jX}.tXK./.tX;XL +XjX`.yX>X:.(.jXtX^.L.jX_.tXQ S.k.r.o ",
"  h.y.1 J 1XyX{.I.yX XyX!.yX|.W.2XyXR.).tXyX).;.[.jX[.K V.l.h.o ",
"o b.y.5 T yX].yXQ.tX<XjXP.@XyXtXjX>XT.yX,X,XyX+XyX'.yXT c.l h.  ",
"  v.h.3 4X.X2.oX&.U.2.oX$.<.#X! #X,.>..X<.<.XX1.XX2..X4XC.j g.o ",
"o g.F.y 3.7XfXdXfXuXiXuXiX7X8XB sX7XiXfXfXfXiXiXiXiX7X3.j.h e.& ",
"o e.g.& _ ' ' 5.5.5.5.5.` ` ' r 0X` ` 5.4.4.' ` ' ' ' _ g.u h & ",
"& h F.t w q q 7 7 7 7 7 6 7 7 ; =.q 6 7 7 q q q 7 7 7 w g.u h o ",
"o h g.& 0 *.*.*.^ *.*.*.*.*.*.- 9.*.*.*.*.*.*.*.*.*.*.0 g.u u   ",
"& h e.& 0 ^ ^ *.0 *.*.^ ^ *.^ - 9.^ *.^ *.^ *.^ *.^ *.0 e.u u o ",
"o h h & 6 ^ ^ *.0 *.^ 0 ^ *.0 - 9.^ ^ ^ ^ 0 ^ ^ *.0 ^ 6 e.t u & ",
"o h h t 6 ^ 0 ^ 0 ^ 0 6 0 ^ 0 - *.0 ^ 0 ^ 6 0 0 ^ 6 0 6 h t t o ",
"& u t & 0 0 6 0 6 6 0 6 0 0 6 - *.6 0 6 0 6 0 6 0 6 6 6 h t t & ",
"o & o o                                                 & o & o "
};
