/* XPM */
static char *result[] = {
/* columns rows colors chars-per-pixel */
"32 32 12 1 ",
"  c #001010",
". c #001818",
"X c #002020",
"o c #003030",
"O c #004040",
"+ c #006060",
"@ c #008080",
"# c #00A0A0",
"$ c #00C0C0",
"% c #00E0E0",
"& c cyan",
"* c #80FFFF",
/* pixels */
"++@##$$%%$#$%$%$%%$$#$#####@@Ooo",
"+ooXXXXoXXXXXXXXXoXXXoXXXXX..X.o",
"@oXoXooXooXoooXoXXXXooXXXX.XXX.o",
"#XoXXXXooXXXXXooXoXoXX.X..XX.XXO",
"#oXX@+@@@###@X####$$$X##@@@@...o",
"$XooooXXXXoX#X$oX.XX#.#X.XX+X..O",
"$oXX@#@##@###o#X$$#X$X@X##.@...o",
"%ooX@oXoXoXXXX#XoX$X$X#X#.X@.. O",
"$XXo@@#@#$$##X$$$$#X$.$.##@#.. o",
"#ooXXXXoXXXXXoXooXXX#.$X..X..X o",
"$Xoo##@#$$#$$$%%%$%$$X#.##@@...o",
"$XoX@XXXXXoXooXXX.XXX.#.$..... O",
"%XXX@o#X##$%%&&%&X%$%.#X$$@@.X.O",
"$oXoXo#X$ooXX.XX*.&X$.$X#X.... O",
"#XXX#@#o$X$%&*&&*.&X$.$X##@#...O",
"#XXX@oXX%X$XX.XXX.*.%$$.$X.X.. O",
"$XXo#.#$$.%%&&***X*..X..##@#.. O",
"%XXo@XX.XX..XXXX.X&X$$$##X.@XX.+",
"%XXo@@#$#$$%%&*&&%&X%...X..#.. +",
"%..XXXXXXXXXXXX.....%X#$###@. .+",
"%XXX@@@#$#.$$%$%%$%XX.$.X.XX . O",
"$XXX@.X..$X$....XX%%$$$X#@@@  .+",
"%.XX#.@#X$X$X$..$XX....X@.X@ . O",
"$.XX@.X@X$.$X#%$$$X#$###@X@@ ..+",
"#XXX@..#.#.#.X.#.#.$X...XXX@.  +",
"#XX.@X@@X@X#$#$$.$.#.#@@#@ @  .+",
"@XXX+X.@.#...XX..X.#X@XXXX.+.. O",
"@.XX@@@@ ###@#####@#.@#@@@+@.  O",
"@..X......X ...X.X.. .. . .  . O",
"O....X...  .  . .. . . .. .. ..o",
"o..  . . . .. . .  .. .  ..  ..o",
"ooooOOoOoOOoooOoOO+OO++O++O+OOoo"
};
