/* XPM */
static char *result[] = {
/* columns rows colors chars-per-pixel */
"32 32 8 1 ",
"  c black",
". c #1F131D",
"X c #463450",
"o c red",
"O c #977894",
"+ c #DDD5B5",
"@ c #F6F6F6",
"# c None",
/* pixels */
"################################",
"###########o####################",
"####################o###########",
"###########o####################",
"###########o#####o##############",
"###########o#oooooooo####o######",
"###########oo        o##########",
"##########o  O+O++++O o##o######",
"#########o +++O++++++O o#o######",
"#########o XXOO.XX+O+OX oo######",
"#########o...+O...X+OXX oo######",
"#########o.o..+.oo.OXXXX o######",
"########o O...OX...XXOXX o######",
"#########o X..XXO+XXOOOX o######",
"########o XO+OXO+++XOOOX o######",
"########o O+O+OXO+.XXOXX o######",
"########o X@ @ OX..XXXX o#######",
"########o @    @XX   X o########",
"#########o +  o OX    o#########",
"##########o O oo  X oo##########",
"###########o  ooo  oo###########",
"############o  oooo o###########",
"###########o O ooo   o#        #",
"##########o OX oo O  o          ",
"#########o +X ooo +X o         #",
"########o +X ooo @ X o       ###",
"########o X     @ X o      #####",
"########o @X@ @ XOX o   ########",
"########o OOOOOOOX o  ##########",
"########o O+++OOX o ############",
"#########o       o##############",
"##########ooooooo###############"
};
