/* XPM */
static char *result[] = {
/* columns rows colors chars-per-pixel */
"32 32 95 2 ",
"   c #000000",
".  c #0C0000",
"X  c #140000",
"o  c #1C0000",
"O  c #151406",
"+  c #141409",
"@  c #1D1D0D",
"#  c #1E1E13",
"$  c #1E1E1E",
"%  c #230000",
"&  c #2B0000",
"*  c #340000",
"=  c #3B0000",
"-  c #22220E",
";  c #29290F",
":  c #34340B",
">  c #242415",
",  c #2D2D12",
"<  c #25251B",
"1  c #2A291C",
"2  c #323114",
"3  c #3B3B12",
"4  c #36351E",
"5  c #3E3D1C",
"6  c #242422",
"7  c #2C2C22",
"8  c #2D2D2C",
"9  c #302F2B",
"0  c #323124",
"q  c #3D3C23",
"w  c #35352B",
"e  c #3A392A",
"r  c #343433",
"t  c #3B3B34",
"y  c #3C3C3A",
"u  c #420000",
"i  c #600000",
"p  c #403F1D",
"a  c #44431D",
"s  c #454421",
"d  c #4B4B24",
"f  c #43432C",
"g  c #4C4C2B",
"h  c #504F28",
"j  c #54532E",
"k  c #454534",
"l  c #4C4C35",
"z  c #45453B",
"x  c #4A4A3C",
"c  c #535232",
"v  c #5C5B37",
"b  c #52523A",
"n  c #5D5C3A",
"m  c #605F3C",
"M  c #62613F",
"N  c #444443",
"B  c #4B4B45",
"V  c #4C4C4B",
"C  c #575741",
"Z  c #5C5C45",
"A  c #55554A",
"S  c #5A5949",
"D  c #565654",
"F  c #5B5B5B",
"G  c #656442",
"H  c #686846",
"J  c #62624C",
"K  c #6C6B4B",
"L  c #656550",
"P  c #696954",
"I  c #6B6B5A",
"U  c #727154",
"Y  c #72725E",
"T  c #79785B",
"R  c #646463",
"E  c #6B6B6B",
"W  c #767662",
"Q  c #7D7D60",
"!  c #70706C",
"~  c #7A7A68",
"^  c #717171",
"/  c #7F7F70",
"(  c #800000",
")  c #A00000",
"_  c #C00000",
"`  c red",
"'  c #FF4000",
"]  c #FF8000",
"[  c #FFC000",
"{  c yellow",
"}  c #818166",
"|  c #8C8B72",
" . c #8A8A86",
".. c #999882",
"X. c None",
/* pixels */
"X.X.X.X.X.X.X.X.X.X.X.X.X.X.X.X.X.X.X.X.X.X.X.X.X.X.X.X.X.X.X.X.",
"X.X.X.X.X.X.X.X.X.X.X.X.X.X.X.X.X.      X.X.X.X.X.X.X.X.X.X.X.X.",
"X.X.X.X.X.X.X.X.X.X.X.X.X.X.      3 c g     X.X.X.X.X.X.X.X.X.X.",
"X.X.X.X.X.X.X.X.X.X.X.X.X.  H } H M H Y J J   X.X.X.X.X.X.X.X.X.",
"X.X.X.X.X.X.X.X.X.X.    X.  v K M v h   b J L   X.X.X.X.X.X.X.X.",
"X.X.X.X.X.X.X.X.X.  d v   j m G a 5 p . . . J l     X.X.X.X.X.X.",
"X.X.X.X.X.X.X.X.  d M m 2 d a d 5 @ . . i . C Y 4 /   X.X.X.X.X.",
"X.X.X.X.X.X.X.  M K | n p . j p , > X X o o Z J > 4 l   X.X.X.X.",
"X.X.X.X.X.X.X.  h } | | T o X M s 1 o ( X X Z Z f f S   X.X.X.X.",
"X.X.X.X.X.X.X.  3 H M 0 o % ( G 0 ` o % X o Z J C x I   X.X.X.X.",
"X.X.X.X.X.X.  a j U K 0 o i ` j 1 ] i & o o Y ~ I 7 k e   X.X.X.",
"X.X.X.X.X.X.  a H n j , ( ] ] [ [ { ] % % o P P W 7 k A e   X.X.",
"X.X.X.X.X.  g a o 0 T 0 % % ] ` ] [ { ` % % P C 7 o k B e   X.X.",
"X.X.X.X.  j a 1 o 1 0 % ( ] [ [ i = & ` & % P 7 o o o A z   X.X.",
"X.X.X.X.  3 @ o o % 1 % & ] { & & & ( & ( & & < % % o A t z   X.",
"X.X.X.  : : 1 o o % % & i ( ] ( * * * * ( & & & % % % x B 0 6   ",
"X.X.  | j O o o % % & ( & * * ' ( * * * * ( & & & % % o D B w   ",
"X.X.  } U > o % % & & & ( * * ( [ ] = = * * * ( & & % % 1 B V   ",
"X.X.X.  G # o % % & & * * = = = { ( = = = * * = ( & % % I B t   ",
"X.X.X.  d + % % & & * * * = = = _ u u = = = = u ` & & %  .! 9   ",
"X.X.  n g + o % & & * * = = = u ] ( u u = ( = i ` & ( % y y r   ",
"X.X.X.  g O % % & & * * ' = = u u ` ( u u = = * & ] & ( 6 B   X.",
"X.X.X.  c + % & & & _ ( _ = = ' u u ' u ( = = ) i ( { [ < r   X.",
"X.c X.  g # o % & & * = ` ` u ' u _ ( ] ( = = i * ( _ ] 8 y N   ",
"X.X.X.2 , # o % & i i _ ( = ` ` ' [ ] { ` ) = - 8 i ` [ 8 F D V ",
"X.X.X.  s > % % & ( ` ` = ' = ` ' ' { ' u = * ^ 6 [ [ { B F y   ",
"X.X.    f # o % i _ ( ' * ' { ' ] ' [ ' ` = ' D $ 6 ( i E V   X.",
"X.X.  , f < o i & - ' ` * ] ] { ' ' _ ' ` * V V N N y ' B V   X.",
"X.X.  - q I 1 u % i ` _ ( _ ] # _ i ` ` = D F E E N y y r 8   X.",
"X.X.  , C k , # u ` * > > ( # # # u & u D ^ ^ F V D y N 8   X.X.",
"X.X.X.  ; l b + + + < # $ # # < # t > 8 R R ^ N R V V F r   X.X.",
"X.X.X.X.                                                  X.X.X."
};
