/* XPM */
static char *result[] = {
/* columns rows colors chars-per-pixel */
"32 32 10 1 ",
"  c black",
". c #001010",
"X c #001818",
"o c #002020",
"O c #003030",
"+ c #004040",
"@ c #101010",
"# c #202020",
"$ c gray19",
"% c gray25",
/* pixels */
"###$$$%%$%%%%%$%$$$#$$#$##@#@@@@",
"#....X..#.X.X......X#X....X.... ",
"#$####@.#X@#@#@@@#@X@.@@@ @@@ . ",
"$...X.XX@.@.XX....#X@X@.XX.X.@. ",
"$.@@@#@@@.#X@#@#@@@XX.@X@.@@  . ",
"$.#X..XX@.@X@X#XXo@@@ @X@X@.X.X ",
"$.@#@#@X@.#X#o@##o@XXX.X@.@X@   ",
"%.#XXXXo@o@o@oXooX@X#@@@@X@XXX. ",
"$.@.@#@@#X@o@@ @@@ o@X XXX @@@  ",
"%.#..XooXX@ooOooooOo@o@X@@X..X. ",
"%.#@@@@@@o@#@@@@#@@@@X#o X@@@ . ",
"%..X..XX@XXooOooOOOooX@o@X .X X ",
"$#@#@@@o@X O@O @@@@@@ @o X@X  X ",
"%XXXXX@o@O@O#O@OO+OOOoOo@X@XXXX ",
"$X@.@@@X@o@+@+@@@@@@@@@@#o@@@   ",
"%X#.@XoX o@+@O++O+O+@OOXoX ..X. ",
"$X#.@o@@@o@O @@@@#@O@+@  @ @@ . ",
"$.@.@X@ooo#+oOO++O@o@O@XXoXX... ",
"%X@X@X@o@@@@@@ @ O O@o o@     X ",
"$X@X@@@o X@Oo+@O@+@o o@o@X.XX.X ",
"#..X..@X@X@o@O@o o@@ X@o X@  @  ",
"$#@@ X#X@o   o o@OoOOX@o X@.XX. ",
"#.X..X@o XoooOoo@@ @@@@X@o@@@@. ",
"$.@@@.#X@@@  @@@@@oooXXX@X..... ",
"#.@X@X@oooXoXoXoo@@@ @  @  @ @  ",
"#.@. X @  @@@@  X oXX .XX.X ... ",
"$.@X@.XXX.. XXo X X X@.   .@X . ",
"#.@.@@ @  .@X@X@X   X .@.@X@. . ",
"@.@.X.XX..X@X . ..XX.@.@XX. . . ",
"#.@ @ @ @ @ X@X@@ @  @X@@ @@ @. ",
"@....X....X.X .....X.X. ..X.... ",
"@                               "
};
